<svg width="558" height="460" viewBox="0 0 558 460" fill="none" xmlns="http://www.w3.org/2000/svg">
<path d="M137 316.034C136.308 312.927 135.717 310.148 135.171 308.092C131.647 294.785 126.74 279.694 125.124 265.12C115.556 258.611 98.6341 237.54 89.3718 230.77C81.0403 247.456 78.9724 282.957 68.8324 317.396C47.9872 359.117 28.8641 391.527 15.6123 412.91L35.3338 422.726C87.3571 382.556 117.651 344.287 137 316.034Z" fill="#36231D"/>
<path d="M25.0741 426.984C25.0741 426.984 17.9462 429.54 7.80615 425.405C2.8924 433.17 0 437.478 0 437.478L45.2145 459.6L46.7704 449.55L25.0741 426.984Z" fill="#36231D"/>
<path d="M25.0741 426.984L29.8216 419.98L15.6123 412.91C13.4646 416.384 9.515 422.726 7.80615 425.405C17.9462 429.541 25.0741 426.984 25.0741 426.984Z" fill="#FDB07F"/>
<path d="M163.73 215.396C152.213 213.561 80.4153 217.763 62.2563 215.134C72.6889 258.2 76.0667 278.96 90.143 305.001C86.1269 332.92 89.4914 379.16 99.2325 431.214L122.465 430.836C132.153 399.331 157.499 309.626 163.73 215.396Z" fill="#6E4C37"/>
<path d="M118.688 442.68C118.781 442.425 120.184 438.25 122.465 430.836L105.104 431.18L102.57 446.66C109.831 446.827 115.889 444.181 118.688 442.68Z" fill="#FDB07F"/>
<path d="M163.73 459.6L160.631 451.818L118.675 442.736C118.675 442.736 118.688 442.691 118.688 442.68C115.889 444.181 109.831 446.827 102.57 446.66L100.502 459.422L163.73 459.6Z" fill="#36231D"/>
<path d="M499.028 318.513C490.431 261.246 477.139 237.94 471.494 214.812C450.21 211.271 429.418 270.962 429.418 270.962C429.418 270.962 408.333 262.597 414.524 274.214C421.053 286.453 445.183 356.805 519.661 429.463L525.692 428.223L541.803 424.938C529.588 397.88 512.679 358.333 499.028 318.513Z" fill="#254369"/>
<path d="M156.096 31.6269H151.455L149.128 42.321L137.505 36.6404L139.4 50.4528L122.398 48.6186V33.0665L132.02 24.3566C132.02 24.3566 128.715 21.1939 130.623 18.2925C132.478 15.3632 137.957 15.7579 139.586 18.2925C146.103 18.1702 150.93 16.2915 154.467 13.8014L156.096 31.6269Z" fill="#FDB07F"/>
<path d="M163.863 0C163.863 0 162.18 8.40972 154.467 13.8013C150.93 16.2914 146.103 18.1701 139.586 18.2924C137.957 15.7578 132.478 15.3632 130.623 18.2924C128.715 21.1938 132.02 24.3565 132.02 24.3565L122.398 33.0664V3.42948L163.863 0Z" fill="#527AAA"/>
<path d="M382.375 165.966L362.627 240.819H510.385L382.375 165.966Z" fill="#254369"/>
<path d="M273.135 154.288C272.038 154.443 271.121 154.577 270.735 154.699C267.238 153.148 261.26 149.63 257.118 147.879C257.051 147.901 256.998 147.946 256.931 147.99C256.2 148.279 255.369 148.879 254.398 149.674L255.828 152.331L244.431 157.189L257.43 168.267L272.976 161.736L273.135 154.288Z" fill="#E39E72"/>
<path d="M433.421 48.6186L416.419 50.4528L409.032 36.6404L397.402 42.321L395.082 31.6269H390.427L392.069 13.8014C395.587 16.2915 400.421 18.1702 406.93 18.2925C408.506 15.7579 414.045 15.3632 415.9 18.2925C417.808 21.1939 414.51 24.3566 414.51 24.3566L424.132 33.0665L433.421 48.6186Z" fill="#FDB07F"/>
<path d="M441.819 49.28L436.386 36.3903L409.869 48.185L409.67 61.5972C397.728 71.3243 397.675 90.1169 395.348 139.38C391.172 227.891 361.437 385.563 352.979 429.057L372.155 431.647C398.486 395.991 427.869 334.916 430.701 306.896C452.464 281.817 462.225 268.194 486.754 219.114C530.911 101.789 441.819 49.28 441.819 49.28Z" fill="#527AAA"/>
<path d="M403.679 135.806C409.297 100.817 399.217 81.685 399.217 81.685L367.567 140.92L272.371 154.465L272.976 161.736C300.942 172.085 422.922 209.343 403.679 135.806Z" fill="#254369"/>
<path d="M510.385 240.819H424.132C424.857 229.903 428.168 205.813 428.168 205.813L389.822 202.084C392.522 179.3 394.483 157.828 395.361 139.402C396.152 122.939 396.657 109.871 397.495 99.4104C398.978 79.5339 401.491 69.0787 408.613 62.5477C408.639 62.5033 408.706 62.4255 408.746 62.3921C409.032 62.1531 409.297 61.9196 409.617 61.6862C409.67 61.6528 409.67 61.6195 409.67 61.6195L409.869 48.1962L436.386 36.4126L441.832 49.2801C441.832 49.2801 524.707 92.0624 510.385 240.819Z" fill="#254369"/>
<path d="M402.648 222.799H499.028L513.091 277.248H409.151L402.648 222.799Z" fill="#EE4D1A"/>
<path d="M169.149 218.564C166.961 218.586 154.946 219.147 139.334 219.814C137.811 219.859 136.269 219.948 134.679 220.003C107.451 221.165 71.7182 222.666 56.1657 222.81C42.2091 135.684 69.6303 88.9441 91.1338 66.633C92.4637 65.249 93.7736 63.9428 95.0834 62.7477C105.29 53.1208 113.369 49.28 113.369 49.28V34.3837L156.376 52.9651L145.524 61.5972C157.473 71.3131 174.568 171.452 169.149 218.564Z" fill="#EE4D1A"/>
<path d="M257.656 152.331L259.485 148.957L256.24 147.484C252.091 149.263 246.579 152.064 242.895 153.693C241.12 153.159 232.269 152.064 230.481 151.492L237.516 161.725C238.22 161.691 238.599 161.669 238.599 161.669L257.43 168.267L270.735 162.675L257.656 152.331Z" fill="#FDB07F"/>
<path d="M438.308 222.833H446.859L447.437 233.532L464.865 228.18V212.3H454.16C448.867 215.763 438.308 222.833 438.308 222.833Z" fill="#FDB07F"/>
<path d="M482.492 99.9885C444.857 31.9048 403.18 69.9625 417.37 87.3601C446.633 123.239 458.475 172.769 454.412 212.144C454.332 212.189 454.239 212.244 454.16 212.3H464.865V212.144C464.865 212.144 507.679 145.533 482.492 99.9885Z" fill="#527AAA"/>
<path d="M428.168 205.835C429.418 180.506 432.556 157.545 418.6 123.845C403.426 87.2043 409.218 63.3981 409.617 61.6861C409.67 61.6528 409.67 61.6194 409.67 61.6194C409.391 61.7306 409.071 61.9529 408.746 62.3921C408.706 62.4254 408.639 62.5032 408.613 62.5477C405.813 66.3107 400.368 77.2439 397.495 99.4104C396.657 109.871 396.152 122.939 395.361 139.402C394.443 158.829 392.282 181.634 389.396 205.835H428.168Z" fill="white"/>
<path d="M424.391 152.992C380.081 97.8485 409.67 61.5972 409.67 61.5972C409.67 61.5972 388.466 78.6945 393.399 109.56C397.389 134.522 408.546 156.127 417.809 172.274C418.932 167.477 424.391 152.992 424.391 152.992Z" fill="#EE4D1A"/>
<path d="M139.334 92.2957V222.81H134.679V92.2957C134.679 85.4645 131.501 79.0058 125.683 74.1701C119.892 69.3232 112.218 66.633 104.013 66.633H91.1338C92.4636 65.249 93.7735 63.9428 95.0834 62.7477H104.013C113.435 62.7477 122.292 65.827 128.981 71.4243C135.637 76.9881 139.334 84.414 139.334 92.2957Z" fill="white"/>
<path d="M129.646 81.6849C123.07 69.212 84.7107 64.3429 84.724 106.97C84.724 117.008 85.8078 125.74 87.7959 133.338C97.0582 126.968 115.596 116.397 143.004 110.155C138.363 99.6438 133.383 88.7662 129.646 81.6849Z" fill="#EE4D1A"/>
<path d="M156.189 140.92C156.189 140.92 149.986 125.957 143.004 110.155C115.596 116.397 97.0582 126.968 87.7959 133.338C110.935 221.615 256.985 155.271 256.985 155.271L156.189 140.92Z" fill="#FDB07F"/>
<path d="M259.485 148.957L250.954 154.41C250.954 154.41 254.651 157.289 254.651 157.044C254.651 156.811 261.526 153.804 261.526 153.804L259.485 148.957Z" fill="#E39E72"/>
<path d="M424.132 3.42948V33.0664L414.511 24.3565C414.511 24.3565 417.809 21.1938 415.9 18.2924C414.045 15.3632 408.506 15.7578 406.93 18.2924C400.421 18.1701 395.587 16.2914 392.069 13.8013C384.336 8.40972 382.674 0 382.674 0L424.132 3.42948Z" fill="#36231D"/>
<path d="M550.38 443.642C547.953 438.439 545.041 432.142 541.802 424.938L525.691 428.223L533.006 443.909C536.902 445.204 543.764 446.582 550.38 443.642Z" fill="#FDB07F"/>
<path d="M550.38 443.642C543.764 446.582 536.902 445.204 533.006 443.909L533.046 443.987L507.273 451.44L499.028 459.6H558C558 459.6 555.094 453.691 550.38 443.642Z" fill="#36231D"/>
<path d="M350.725 440.452V440.463L316.349 440.796L307.818 446.96L358.93 459.6L363.604 445.298C356.45 444.937 352.553 442.269 350.725 440.452Z" fill="#36231D"/>
<path d="M352.979 429.057C351.563 436.294 350.751 440.368 350.725 440.451C352.553 442.269 356.45 444.937 363.604 445.298L368.219 431.169L352.979 429.057Z" fill="#FDB07F"/>
<path d="M142.233 211.127H41.8368L27.7804 277.248H146.302L142.233 211.127Z" fill="#56A5B1"/>
<path d="M41.8367 211.127L24.3826 244.193H144.274L142.233 211.127H41.8367Z" fill="#56A5B1"/>
</svg>
